<?xml version="1.0" encoding="utf-8"?>
<!-- Generator: Adobe Illustrator 15.0.2, SVG Export Plug-In . SVG Version: 6.00 Build 0)  -->
<!DOCTYPE svg PUBLIC "-//W3C//DTD SVG 1.1//EN" "http://www.w3.org/Graphics/SVG/1.1/DTD/svg11.dtd">
<svg version="1.1" id="Layer_1" xmlns="http://www.w3.org/2000/svg" xmlns:xlink="http://www.w3.org/1999/xlink" x="0px" y="0px"
	 width="265px" height="126px" viewBox="0 0 265 126" enable-background="new 0 0 265 126" xml:space="preserve">
<g>
	<defs>
		<path id="SVGID_1_" d="M201.066,78.511c0,0,20.672-11.674,24.616-33.759c1.574-8.817,0.482-19.292-5.656-31.345
			C220.026,13.407,177.623,35.469,201.066,78.511"/>
	</defs>
	<clipPath id="SVGID_2_">
		<use xlink:href="#SVGID_1_"  overflow="visible"/>
	</clipPath>
	<rect x="137.518" y="-43.078" clip-path="url(#SVGID_2_)" fill="#E94190" width="145.295" height="178.077"/>
	<rect x="-330.356" y="-21.107" clip-path="url(#SVGID_2_)" fill="#E94190" width="660.475" height="467.001"/>
</g>
<g>
	<defs>
		<path id="SVGID_3_" d="M201.066,78.511c0,0,31.35-0.571,49.806-23.747c7.369-9.252,12.682-22.106,13.128-39.963
			c0,0-0.06,0-0.173,0C260.215,14.801,200.889,15.755,201.066,78.511"/>
	</defs>
	<clipPath id="SVGID_4_">
		<use xlink:href="#SVGID_3_"  overflow="visible"/>
	</clipPath>
	<rect x="144.582" y="-41.684" clip-path="url(#SVGID_4_)" fill="#FFE92E" width="175.901" height="176.683"/>
	<rect x="-330.356" y="-21.107" clip-path="url(#SVGID_4_)" fill="#FFE92E" width="660.475" height="467.001"/>
</g>
<g>
	<defs>
		<path id="SVGID_5_" d="M201.066,78.511c0,0,20.672-11.674,24.616-33.759c0.961-5.386,0.927-11.393-0.643-17.998
			C212.121,35.684,200.988,51.275,201.066,78.511"/>
	</defs>
	<clipPath id="SVGID_6_">
		<use xlink:href="#SVGID_5_"  overflow="visible"/>
	</clipPath>
	<rect x="144.504" y="-29.731" clip-path="url(#SVGID_6_)" fill="#FFD332" width="138.626" height="164.73"/>
	<rect x="-330.356" y="-21.107" clip-path="url(#SVGID_6_)" fill="#FFD332" width="660.475" height="467.001"/>
</g>
<g>
	<defs>
		<path id="SVGID_7_" d="M181.306,59.785c5.134,13.687,19.761,18.726,19.761,18.726c9.941-30.351-19.836-39.481-19.836-39.481
			C178.721,47.478,179.257,54.319,181.306,59.785"/>
	</defs>
	<clipPath id="SVGID_8_">
		<use xlink:href="#SVGID_7_"  overflow="visible"/>
	</clipPath>
	<rect x="123.065" y="-17.457" clip-path="url(#SVGID_8_)" fill="#BDD143" width="136.518" height="152.453"/>
	<rect x="-330.356" y="-21.107" clip-path="url(#SVGID_8_)" fill="#BDD143" width="660.475" height="467.001"/>
</g>
<g>
	<defs>
		<path id="SVGID_9_" d="M201.066,78.511c5.063-15.457-0.177-25.407-6.537-31.453C193.076,55.849,194.438,66.34,201.066,78.511"/>
	</defs>
	<clipPath id="SVGID_10_">
		<use xlink:href="#SVGID_9_"  overflow="visible"/>
	</clipPath>
	<rect x="136.591" y="-9.428" clip-path="url(#SVGID_10_)" fill="#BCBF42" width="126.025" height="144.424"/>
	<rect x="-330.356" y="-21.107" clip-path="url(#SVGID_10_)" fill="#BCBF42" width="660.475" height="467.001"/>
</g>
<g>
	<defs>
		<path id="SVGID_11_" d="M201.066,78.511c2.148-6.56,2.44-12.126,1.578-16.825C201.614,66.732,201.049,72.318,201.066,78.511"/>
	</defs>
	<clipPath id="SVGID_12_">
		<use xlink:href="#SVGID_11_"  overflow="visible"/>
	</clipPath>
	<rect x="144.564" y="5.201" clip-path="url(#SVGID_12_)" fill="#BECF0D" width="115.427" height="129.798"/>
	<rect x="-330.356" y="-21.107" clip-path="url(#SVGID_12_)" fill="#BECF0D" width="660.475" height="467.001"/>
</g>
<g>
	<defs>
		<path id="SVGID_13_" d="M201.066,78.511c2.15-6.563,2.44-12.132,1.577-16.833C201.613,66.727,201.049,72.317,201.066,78.511"/>
	</defs>
	<clipPath id="SVGID_14_">
		<use xlink:href="#SVGID_13_"  overflow="visible"/>
	</clipPath>
	<rect x="144.564" y="5.192" clip-path="url(#SVGID_14_)" fill="#BECC10" width="115.428" height="129.804"/>
	<rect x="-330.356" y="-21.107" clip-path="url(#SVGID_14_)" fill="#BECC10" width="660.475" height="467.001"/>
</g>
<g>
	<path fill="#009FE3" d="M218.587,4.333c10.128,0,19.395,3.686,26.535,9.786c-6.319,1.667-12.46,4.11-18.094,7.414
		c-1.079-3.314-2.447-6.533-4.03-9.639l-1.525-2.999l-2.985,1.554c-4.193,2.18-8.8,5.811-12.187,9.036
		c-6.344,6.044-11.289,13.322-13.805,21.632c-3.208-2.264-6.904-4.233-10.282-5.276l-3.178-0.979
		C183.617,17.295,199.588,4.333,218.587,4.333 M259.378,47.843c-1.357,21.346-19.101,38.241-40.791,38.241
		c-6.567,0-12.772-1.55-18.271-4.304l0.236,0.082l0.594-0.016c1.884-0.041,3.846-0.25,5.708-0.49
		c4.497-0.583,8.981-1.551,13.322-2.86c12.985-3.917,24.783-10.952,33.307-21.654C255.761,53.984,257.714,50.974,259.378,47.843"/>
	<path d="M174.058,53.018h-4.422v6.063h-0.127c-0.925-1.431-1.968-2.601-3.125-3.506c-1.159-0.905-2.349-1.612-3.569-2.117
		c-1.223-0.505-2.421-0.851-3.601-1.042s-2.231-0.284-3.156-0.284c-2.823,0-5.382,0.505-7.676,1.514
		c-2.296,1.011-4.242,2.36-5.842,4.043c-1.602,1.685-2.843,3.611-3.727,5.78c-0.885,2.168-1.327,4.41-1.327,6.726
		c0,2.485,0.452,4.831,1.357,7.044c0.907,2.209,2.181,4.136,3.821,5.777c1.644,1.643,3.602,2.948,5.874,3.916
		c2.274,0.969,4.778,1.454,7.519,1.454c0.883,0,1.902-0.095,3.062-0.284c1.157-0.189,2.348-0.537,3.568-1.043
		c1.222-0.505,2.421-1.2,3.601-2.085c1.178-0.884,2.251-2.041,3.221-3.472h0.127v6.062h4.422V53.018z M143.045,64.449
		c0.758-1.77,1.788-3.263,3.094-4.484c1.305-1.221,2.812-2.169,4.518-2.842c1.705-0.675,3.504-1.011,5.401-1.011
		c1.977,0,3.81,0.39,5.494,1.168c1.684,0.78,3.146,1.812,4.389,3.096s2.211,2.79,2.906,4.515c0.694,1.728,1.042,3.537,1.042,5.433
		c0,2.021-0.37,3.895-1.105,5.62c-0.736,1.728-1.737,3.213-3.001,4.453c-1.263,1.243-2.737,2.221-4.42,2.938
		c-1.684,0.717-3.453,1.074-5.305,1.074c-2.107,0-4.033-0.369-5.781-1.105c-1.748-0.735-3.241-1.736-4.485-3.001
		c-1.24-1.263-2.199-2.748-2.873-4.452c-0.673-1.705-1.009-3.525-1.009-5.464C141.909,68.196,142.287,66.218,143.045,64.449
		 M121.822,87.566h4.422V67.354c0-1.389,0.211-2.684,0.631-3.883c0.42-1.201,1.01-2.284,1.769-3.254
		c0.843-1.009,1.905-1.799,3.188-2.368s2.705-0.915,4.264-1.043v-4.672c-0.928,0.085-1.862,0.2-2.811,0.346
		c-0.948,0.149-1.841,0.433-2.684,0.854s-1.633,1-2.37,1.735c-0.737,0.738-1.357,1.717-1.862,2.938h-0.126v-4.99h-4.422V87.566z
		 M112.224,77.397c-0.338,0.674-0.832,1.411-1.485,2.211c-0.653,0.8-1.463,1.558-2.431,2.273c-0.971,0.716-2.139,1.315-3.507,1.8
		c-1.368,0.483-2.957,0.727-4.769,0.727c-2.062,0-3.969-0.379-5.715-1.137c-1.748-0.759-3.252-1.779-4.515-3.064
		c-1.263-1.283-2.253-2.788-2.971-4.515c-0.715-1.727-1.074-3.558-1.074-5.496c0-2.273,0.433-4.283,1.296-6.032
		c0.862-1.746,1.969-3.221,3.315-4.42c1.347-1.2,2.873-2.107,4.581-2.717c1.705-0.609,3.399-0.915,5.083-0.915
		c1.095,0,2.213,0.138,3.348,0.412c1.137,0.272,2.244,0.704,3.318,1.293c1.074,0.589,2.083,1.349,3.032,2.275
		c0.945,0.925,1.777,2.042,2.495,3.346h4.862c-0.843-2.062-1.926-3.809-3.251-5.241c-1.327-1.431-2.77-2.601-4.326-3.506
		c-1.559-0.905-3.169-1.557-4.833-1.958c-1.663-0.399-3.254-0.599-4.769-0.599c-2.568,0-4.98,0.484-7.232,1.452
		c-2.253,0.969-4.222,2.274-5.905,3.916c-1.686,1.643-3.011,3.568-3.98,5.778c-0.969,2.213-1.452,4.56-1.452,7.044
		c0,2.399,0.463,4.694,1.388,6.885c0.927,2.188,2.211,4.116,3.854,5.779c1.641,1.663,3.599,2.979,5.875,3.946
		c2.272,0.969,4.756,1.454,7.452,1.454c2.568,0,4.811-0.37,6.727-1.106c1.917-0.735,3.557-1.663,4.926-2.779
		c1.368-1.115,2.495-2.305,3.379-3.568c0.885-1.263,1.6-2.44,2.147-3.536H112.224z M73.254,77.397
		c-0.338,0.674-0.832,1.411-1.484,2.211c-0.654,0.8-1.464,1.558-2.432,2.273c-0.969,0.716-2.138,1.315-3.506,1.8
		c-1.369,0.483-2.958,0.727-4.767,0.727c-2.066,0-3.972-0.379-5.718-1.137c-1.747-0.759-3.253-1.779-4.516-3.064
		c-1.264-1.283-2.253-2.788-2.969-4.515c-0.716-1.727-1.074-3.558-1.074-5.496c0-2.273,0.431-4.283,1.296-6.032
		c0.861-1.746,1.968-3.221,3.315-4.42c1.346-1.2,2.873-2.107,4.578-2.717c1.708-0.609,3.401-0.915,5.087-0.915
		c1.093,0,2.208,0.138,3.346,0.412c1.138,0.272,2.242,0.704,3.315,1.293c1.074,0.589,2.086,1.349,3.032,2.275
		c0.948,0.925,1.78,2.042,2.496,3.346h4.863c-0.843-2.062-1.927-3.809-3.252-5.241c-1.328-1.431-2.769-2.601-4.326-3.506
		c-1.561-0.905-3.171-1.557-4.831-1.958c-1.666-0.399-3.254-0.599-4.77-0.599c-2.568,0-4.979,0.484-7.231,1.452
		c-2.253,0.969-4.223,2.274-5.906,3.916c-1.684,1.643-3.011,3.568-3.979,5.778c-0.971,2.213-1.452,4.56-1.452,7.044
		c0,2.399,0.461,4.694,1.388,6.885c0.926,2.188,2.211,4.116,3.852,5.779c1.644,1.663,3.602,2.979,5.874,3.946
		c2.275,0.969,4.759,1.454,7.454,1.454c2.567,0,4.812-0.37,6.728-1.106c1.915-0.735,3.557-1.663,4.925-2.779
		c1.369-1.115,2.495-2.305,3.379-3.568c0.884-1.263,1.599-2.44,2.147-3.536H73.254z M37.758,53.018h-4.422v6.063h-0.126
		c-0.925-1.431-1.968-2.601-3.126-3.506c-1.159-0.905-2.349-1.612-3.568-2.117c-1.223-0.505-2.423-0.851-3.601-1.042
		c-1.179-0.19-2.232-0.284-3.158-0.284c-2.822,0-5.38,0.505-7.673,1.514c-2.296,1.011-4.243,2.36-5.843,4.043
		c-1.601,1.685-2.843,3.611-3.727,5.78c-0.884,2.168-1.326,4.41-1.326,6.726c0,2.485,0.452,4.831,1.357,7.044
		c0.906,2.209,2.181,4.136,3.822,5.777c1.642,1.643,3.6,2.948,5.873,3.916c2.275,0.969,4.778,1.454,7.517,1.454
		c0.884,0,1.907-0.095,3.063-0.284c1.157-0.189,2.348-0.537,3.568-1.043c1.221-0.505,2.42-1.2,3.599-2.085
		c1.179-0.884,2.253-2.041,3.222-3.472h0.126v6.062h4.422V53.018z M6.746,64.449c0.758-1.77,1.788-3.263,3.094-4.484
		c1.306-1.221,2.812-2.169,4.517-2.842c1.705-0.675,3.504-1.011,5.4-1.011c1.979,0,3.812,0.39,5.496,1.168
		c1.683,0.78,3.147,1.812,4.388,3.096c1.243,1.284,2.212,2.79,2.906,4.515c0.695,1.728,1.043,3.537,1.043,5.433
		c0,2.021-0.37,3.895-1.107,5.62c-0.735,1.728-1.735,3.213-3,4.453c-1.263,1.243-2.737,2.221-4.421,2.938s-3.451,1.074-5.305,1.074
		c-2.107,0-4.033-0.369-5.778-1.105c-1.75-0.735-3.245-1.736-4.486-3.001c-1.242-1.263-2.2-2.748-2.874-4.452
		c-0.673-1.705-1.009-3.525-1.009-5.464C5.609,68.196,5.988,66.218,6.746,64.449"/>
	<path fill="#9D9D9C" d="M204.906,124.33h3.42V88.212h-3.42V124.33z M197.393,124.33h3.42V88.212h-3.42V124.33z M186.526,103.872
		c2.024,2.026,3.037,4.546,3.037,7.56c0,1.979-0.452,3.758-1.354,5.334c-0.904,1.58-2.191,2.832-3.866,3.758
		c-1.677,0.924-3.449,1.387-5.319,1.387c-1.856,0-3.592-0.466-5.209-1.4c-1.619-0.932-2.908-2.235-3.867-3.909
		c-0.959-1.676-1.438-3.43-1.438-5.264c0-1.85,0.476-3.604,1.427-5.264s2.23-2.946,3.841-3.864c1.61-0.915,3.368-1.376,5.271-1.376
		C182.008,100.833,184.5,101.848,186.526,103.872 M189.344,98.271v4.79c-1.335-1.82-2.887-3.185-4.653-4.096
		c-1.769-0.911-3.741-1.365-5.924-1.365c-3.777,0-7.009,1.333-9.697,4.001c-2.687,2.665-4.03,5.875-4.03,9.627
		c0,3.833,1.331,7.085,3.993,9.76c2.664,2.676,5.876,4.012,9.637,4.012c2.116,0,4.066-0.431,5.849-1.293
		c1.783-0.862,3.391-2.147,4.826-3.856v4.479h3.371V98.271H189.344z M121.792,124.33h3.419v-11.042c0-3.257,0.33-5.677,0.989-7.258
		c0.661-1.58,1.678-2.837,3.054-3.771c1.377-0.935,2.854-1.401,4.434-1.401c1.368,0,2.549,0.341,3.54,1.018
		c0.996,0.68,1.69,1.581,2.089,2.708c0.4,1.125,0.6,3.261,0.6,6.406v13.341h3.42v-10.203c0-3.737,0.316-6.403,0.948-8.001
		c0.633-1.597,1.635-2.873,3.007-3.832c1.371-0.957,2.884-1.437,4.541-1.437c1.363,0,2.534,0.321,3.518,0.958
		c0.982,0.64,1.676,1.48,2.081,2.526c0.406,1.048,0.608,2.967,0.608,5.761v14.228h3.493v-14.228c0-3.258-0.341-5.701-1.023-7.328
		c-0.683-1.63-1.726-2.897-3.132-3.809c-1.403-0.911-3.024-1.365-4.86-1.365c-1.967,0-3.802,0.531-5.507,1.592
		c-1.708,1.062-3.129,2.614-4.264,4.66c-0.54-1.534-1.177-2.712-1.908-3.533c-0.734-0.823-1.68-1.481-2.837-1.977
		c-1.158-0.495-2.381-0.742-3.668-0.742c-1.908,0-3.725,0.512-5.453,1.532c-1.256,0.767-2.478,1.981-3.668,3.642v-4.503h-3.419
		V124.33z"/>
</g>
</svg>
